{/*?xml version="1.0" encoding="utf-8"?*/}
{/* Generator: Adobe Illustrator 24.0.0, SVG Export Plug-In . SVG Version: 6.00 Build 0)  */}
<svg version="1.1" id="katman_1" xmlns="http://www.w3.org/2000/svg" xmlnsXlink="http://www.w3.org/1999/xlink" x="0px" y="0px" viewBox="0 0 175 24" style={{enableBackground: 'new 0 0 175 24'}} xmlSpace="preserve">
  <style type="text/css" dangerouslySetInnerHTML={{__html: "\n\t.st0{fill:#B9C9D1;}\n\t.st1{fill:url(#SVGID_1_);}\n\t.st2{opacity:0.2;clip-path:url(#SVGID_3_);}\n\t.st3{fill:#424242;}\n\t.st4{clip-path:url(#SVGID_5_);}\n\t.st5{fill:url(#SVGID_6_);}\n\t.st6{fill:url(#SVGID_7_);}\n\t.st7{fill:url(#SVGID_8_);}\n\t.st8{fill:url(#SVGID_9_);}\n\t.st9{fill:url(#SVGID_10_);}\n\t.st10{fill:url(#SVGID_11_);}\n\t.st11{fill:url(#SVGID_12_);}\n\t.st12{fill:url(#SVGID_13_);}\n\t.st13{fill:url(#SVGID_14_);}\n\t.st14{fill:url(#SVGID_15_);}\n\t.st15{fill:url(#SVGID_16_);}\n\t.st16{fill:url(#SVGID_17_);}\n\t.st17{fill:url(#SVGID_18_);}\n\t.st18{fill:url(#SVGID_19_);}\n\t.st19{opacity:0.2;}\n" }} />
  <g>
    <path className="st0" d="M42.9,4.9h4.3c0,0-2.6,13.2-2.8,14.4c-0.1,0.4-0.3,0.5-0.6,0.5h-5.5c-0.2,0-0.5-0.1-0.6-0.5l-1-8.1h-0.1
		l-1,8.1c-0.1,0.4-0.4,0.5-0.6,0.5h-5.5c-0.3,0-0.5-0.1-0.6-0.5c-0.2-1.1-2.8-14.4-2.8-14.4h4.3L32.3,16h0.3l1.6-11.1h5.2L40.9,16
		h0.3L42.9,4.9z" />
    <path className="st0" d="M59.7,11.3v4.6c0,3-1.4,4-4.3,4h-3.3c-2.8,0-4.3-1-4.3-4v-4.6c0-3.1,1.4-4,4.3-4h3.3
		C58.3,7.3,59.7,8.2,59.7,11.3z M56,15.9v-4.6c0-0.8-0.4-1.1-1.2-1.1h-2c-0.8,0-1.2,0.3-1.2,1.1v4.6c0,0.8,0.4,1.1,1.2,1.1h2
		C55.6,17,56,16.7,56,15.9z" />
    <path className="st0" d="M61.6,7.5h3.7v0.9c0.9-0.5,2.1-1.1,3-1.1h1.3v3.3h-1.9c-0.7,0-1.5,0.2-2.4,0.6v8.5h-3.7V7.5z" />
    <path className="st0" d="M74.7,19.8h-3.7V4.1h3.7V19.8z" />
    <path className="st0" d="M84.3,4.1H88v15.6h-3.7v-0.8c-0.9,0.5-2.1,1-3,1h-0.6c-2.8,0-4.1-0.8-4.1-3.8v-5c0-3,1.4-3.7,4.1-3.7h0.6
		c1,0,2.1,0.5,3,1V4.1z M84.3,16.3v-5.4c-1-0.2-1.7-0.5-2.5-0.5h-0.4c-0.8,0-1.2,0.3-1.2,1.1v4.3c0,0.8,0.4,1.1,1.2,1.1h0.4
		C82.6,16.8,83.4,16.5,84.3,16.3z" />
    <path className="st0" d="M98.6,19.8h-3.8V4.9h8.6c2.9,0,4.3,1.7,4.3,3.9V11c0,1.6-0.7,2.8-2.1,3.5l2.4,5.3h-4l-2.2-4.7h-3.1V19.8z
		 M103.9,10.4V9.5c0-1-0.4-1.5-1.5-1.5h-3.8V12h3.8C103.5,12,103.9,11.4,103.9,10.4z" />
    <path className="st0" d="M116.6,7.3c2.9,0,4.3,0.7,4.3,3.7v8.7h-3.7v-0.8c-0.9,0.5-2.1,1-3,1h-0.6c-2.8,0-4.1,0.1-4.1-3.8V15
		c0-3.1,1.4-3.3,4.1-3.3h0.9c1.3,0,1.7,0.2,2.7,0.4v-0.8c0-1-0.4-1.3-1.5-1.3l-5.1,0V7.7C110.6,7.7,113.2,7.3,116.6,7.3z
		 M114.9,14.1h-0.7c-0.9,0-1.2,0.1-1.2,1.1v1c0,0.8,0.4,1.1,1.2,1.1h0.5c0.7,0,1.5-0.3,2.5-0.5v-2.5
		C116.2,14.1,115.6,14.1,114.9,14.1z" />
    <path className="st0" d="M122.9,7.5h3.7v0.8c0.9-0.5,2.1-1,3-1h0.5c2.8,0,4.1,0.7,4.1,3.7v8.7h-3.7v-8.3c0-0.8-0.4-1.1-1.1-1.1H129
		c-0.7,0-1.5,0.3-2.4,0.5v8.9h-3.7V7.5z" />
    <path className="st0" d="M136.2,4.1h3.7v7.8h1.3l2.8-4.4h4.3l-3.7,5.8v0.2l3.8,6.3h-4.2l-2.9-4.6h-1.2v4.6h-3.7V4.1z" />
    <path className="st0" d="M159.2,10.2h-5.5c-0.6,0-0.8,0-0.8,0.4v0.3c0,0.4,0.2,0.4,0.4,0.5l2.8,0.5c2.5,0.4,3.9,0.6,3.9,3.3V16
		c0,2.9-1.5,3.9-4.3,3.9c-3.5,0-6.6-0.4-6.6-0.4l0-2.6h5.8c1.1,0,1.5-0.1,1.5-0.8v-0.3c0-0.3-0.2-0.5-1.4-0.7
		c-1-0.2-2.6-0.4-3.5-0.6c-1.5-0.3-2.3-0.8-2.3-2.8v-1c0-2.9,1.4-3.3,4.3-3.3c3.5,0,5.8,0.2,5.8,0.2L159.2,10.2z" />
  </g>
  <g>
    <radialGradient id="SVGID_1_" cx="10.8076" cy="24.8076" r="21.6161" gradientTransform="matrix(1 0 0 -1 0 26)" gradientUnits="userSpaceOnUse">
      <stop offset={0} style={{stopColor: '#42A5F5'}} />
      <stop offset="0.3522" style={{stopColor: '#42A5F5'}} />
      <stop offset="0.6798" style={{stopColor: '#2B8BE2'}} />
      <stop offset={1} style={{stopColor: '#1976D2'}} />
    </radialGradient>
    <circle className="st1" cx="10.8" cy={12} r="10.8" />
    <g>
      <g>
        <defs>
          <circle id="SVGID_2_" cx="10.8" cy={12} r="10.8" />
        </defs>
        <clipPath id="SVGID_3_">
          <use xlinkHref="#SVGID_2_" style={{overflow: 'visible'}} />
        </clipPath>
        <g className="st2">
          <path className="st3" d="M30.9,21.8c0.3,0,0.2,1.1-0.1,1.5c-0.1,0.1-0.2,0.2-0.2,0.2c-0.2,0-0.3-0.4-0.4-0.7
					c-0.2-0.3,0.6-0.9,0.6-0.9C30.8,21.8,30.9,21.8,30.9,21.8 M30.9,21.3c-0.1,0-0.3,0-0.4,0.1c-0.1,0-0.3,0.2-0.5,0.4
					c-0.5,0.5-0.4,0.9-0.3,1.2c0,0,0,0.1,0.1,0.2c0.1,0.3,0.3,0.8,0.8,0.8c0.2,0,0.5-0.1,0.7-0.4c0.3-0.5,0.6-1.5,0.3-2
					C31.4,21.4,31.2,21.3,30.9,21.3L30.9,21.3z" />
          <path className="st3" d="M29.8,23c0.1,0,0.2,0.1,0.3,0.2c0.2,0.3,0.4,1-1.3,1.6c-0.5,0.2-0.8,0.3-0.9,0.3c-0.4,0,1.3-1,1.8-1.9
					C29.6,23,29.7,23,29.8,23 M29.8,22.4L29.8,22.4c-0.3,0-0.5,0.1-0.7,0.4c-0.2,0.5-0.9,1-1.3,1.3c-0.4,0.4-0.7,0.6-0.6,1
					c0.1,0.2,0.2,0.4,0.6,0.4c0.2,0,0.4,0,1.1-0.3c1-0.3,1.6-0.8,1.8-1.3c0.1-0.4,0.1-0.7-0.1-1.1C30.4,22.6,30.1,22.4,29.8,22.4
					L29.8,22.4z" />
          <path className="st3" d="M-10.9,2.4c0.1,0,0.2,0,0.3,0.1L-9.8,3c0.6,0.3,1.2,0.5,1.9,0.5c0.2,0,0.4,0,0.6-0.1L-5.1,3C-5.1,3-5,3-5,3
					c0.3,0,0.6,0.3,0.7,0.6l0.1,0.9c0,0.4-0.3,0.8-0.7,0.9l-0.2,0c-0.5,0.1-1,0.5-1.2,1l0,0c-0.1,0.2,0,0.5,0.1,0.6l1.4,1.4
					c0.1,0.1,0.1,0.1,0.2,0.1c0,0,0,0,0.1,0c0.1,0,0.3-0.1,0.3-0.3l0.2-1.6c0-0.4,0.3-0.6,0.7-0.6h0.1c0.3,0,0.5,0.2,0.6,0.4
					l0.3,0.7c0.1,0.1,0.2,0.2,0.3,0.2c0.1,0,0.1,0,0.2-0.1l0,0c0.1,0,0.1-0.1,0.2-0.1c0.1,0,0.2,0.1,0.3,0.2l0.8,1.9
					c0.2,0.4,0,0.9-0.4,1l-0.7,0.3c-1.1,0.5-2.1,1.2-2.9,2.2l0,0c0,0-0.1,0.1-0.1,0.2l0,0.7c0,0.1-0.1,0.2-0.2,0.3c0,0,0,0-0.1,0
					c-0.2,0-0.4-0.1-0.5-0.4l0,0c-0.1-0.2-0.3-0.4-0.5-0.4c0,0-0.1,0-0.1,0l-0.5,0.1c-0.3,0.1-0.6,0.3-0.8,0.6l-0.1,0.3
					c0,0.1,0,0.2,0,0.3l0,0c0.1,0.1,0.2,0.2,0.3,0.2c0.1,0,0.2,0,0.3-0.1c0.1-0.1,0.2-0.1,0.3-0.1c0,0,0,0,0,0l0.3,0
					c0.2,0,0.3,0.2,0.2,0.3l0,0.1c-0.1,0.2,0.1,0.5,0.3,0.5l0,0c0.2,0,0.3,0.1,0.3,0.3l0,0.4c0,0.2,0.1,0.3,0.3,0.3l0,0c0,0,0,0,0,0
					c0.1,0,0.2-0.1,0.3-0.2l0,0c0.2-0.3,0.5-0.5,0.8-0.5c0,0,0.1,0,0.1,0l0.9,0.1c0.5,0.1,1,0.3,1.4,0.6l0.7,0.5
					c0.2,0.1,0.3,0.3,0.4,0.6c0.1,0.3,0.3,0.6,0.6,0.7l1.3,0.6c0.4,0.2,0.5,0.6,0.3,1l-0.9,1.6c-0.1,0.2-0.3,0.3-0.5,0.4L-0.1,22
					c-0.3,0.1-0.5,0.3-0.6,0.7l0,0.1c0,0.3-0.2,0.6-0.4,0.9l-2.7,2.8c-0.3,0.3-0.4,0.8-0.1,1.2l0.2,0.3c0.1,0.2,0,0.5-0.2,0.5
					c0,0,0,0,0,0l-0.5-0.1c-0.3,0-0.6-0.3-0.7-0.6L-5.3,27c-0.1-0.3-0.1-0.7,0-1l1.1-3.9c0.1-0.4,0-0.9-0.3-1.2l-0.2-0.2
					c-0.3-0.3-0.5-0.6-0.5-1l-0.2-1.1c-0.1-0.4,0-0.7,0.2-1.1l0-0.1c0.1-0.2,0-0.5-0.2-0.5l-0.1,0c-0.1,0-0.1-0.1-0.2-0.1l-0.6-0.9
					c0,0-0.1-0.1-0.1-0.1l-1.6-0.6c-0.4-0.2-0.7-0.4-1-0.8l-1.5-2.6c-0.2-0.4-0.3-0.8-0.3-1.2l0-0.8c0-0.5-0.2-1-0.5-1.5l-0.4-0.6
					c-0.3-0.5-0.8-1-1.4-1.3l-0.1-0.1c-0.2-0.1-0.4-0.2-0.6-0.2c0,0-0.1,0-0.1,0c-0.1,0-0.2,0-0.3,0c-0.4,0-0.8-0.1-1.1-0.2
					l-1.3-0.6c-0.1,0-0.1-0.2-0.1-0.3l0,0l0.3-0.4c0.1-0.1,0-0.4-0.1-0.4l0,0c-0.1,0-0.2-0.2-0.2-0.3l0.1-0.3c0-0.1,0.1-0.2,0.2-0.2
					l0,0c0.2,0,3.9-0.1,4.9-0.9c0.1-0.1,0.4-0.1,0.5-0.2C-11.1,2.4-11,2.4-10.9,2.4 M-10.9,1.9L-10.9,1.9c-0.2,0-0.3,0-0.5,0.1
					c0,0-0.1,0-0.1,0c-0.1,0-0.3,0.1-0.5,0.2c-0.4,0.3-1.8,0.7-4.5,0.8c0,0-0.1,0-0.1,0c-0.3,0-0.6,0.2-0.7,0.5l-0.1,0.3
					c-0.1,0.2-0.1,0.5,0,0.7c0,0.1,0.1,0.1,0.1,0.2l-0.1,0.1l0,0l0,0c-0.1,0.2-0.2,0.4-0.1,0.6c0.1,0.2,0.2,0.4,0.4,0.5l1.3,0.6
					c0.4,0.2,0.9,0.3,1.3,0.3c0.1,0,0.3,0,0.4,0c0,0,0,0,0.1,0c0.1,0,0.3,0,0.4,0.1l0.1,0.1c0.5,0.3,0.9,0.7,1.2,1.1l0.4,0.6
					c0.2,0.4,0.4,0.8,0.4,1.2l0,0.8c0,0.5,0.2,1,0.4,1.4l1.5,2.6c0.3,0.5,0.7,0.8,1.2,1l1.5,0.6l0.6,0.8c0.1,0.1,0.2,0.2,0.3,0.3
					c-0.2,0.4-0.3,0.9-0.2,1.3l0.2,1.1c0.1,0.5,0.3,0.9,0.7,1.2l0.2,0.2c0.2,0.2,0.3,0.4,0.2,0.7l-1.1,3.9c-0.1,0.4-0.1,0.9,0,1.3
					l0.2,0.6c0.2,0.5,0.6,0.9,1.1,0.9l0.5,0.1c0,0,0.1,0,0.1,0c0.3,0,0.6-0.2,0.7-0.5c0.1-0.3,0.1-0.6-0.1-0.9l-0.2-0.3
					c-0.1-0.2-0.1-0.4,0-0.5l2.7-2.8c0.3-0.3,0.5-0.7,0.5-1.2l0-0.1c0-0.1,0.1-0.2,0.1-0.2l0.5-0.1c0.4-0.1,0.7-0.3,0.8-0.6l0.9-1.6
					c0.2-0.3,0.2-0.7,0.1-1S2,18.6,1.7,18.4l-1.3-0.6c-0.1-0.1-0.3-0.2-0.3-0.4c-0.1-0.3-0.3-0.6-0.6-0.9l-0.7-0.5
					c-0.5-0.4-1-0.6-1.6-0.7l-0.9-0.1c-0.1,0-0.1,0-0.2,0c-0.4,0-0.7,0.1-1,0.4c0-0.4-0.3-0.6-0.6-0.7c0-0.2,0-0.4-0.1-0.6
					C-5.7,14.2-6,14-6.2,14l-0.3,0c0,0,0,0-0.1,0c-0.1,0-0.2,0-0.3,0c0.1-0.1,0.2-0.2,0.3-0.2l0.4-0.1c0.1,0.4,0.5,0.7,1,0.7
					c0,0,0.1,0,0.1,0c0.4-0.1,0.7-0.4,0.7-0.8l0-0.6c0.7-0.8,1.6-1.5,2.6-1.9l0.7-0.3c0.3-0.1,0.6-0.4,0.7-0.7c0.1-0.3,0.1-0.7,0-1
					l-0.8-1.9c-0.1-0.3-0.4-0.5-0.8-0.5c-0.1,0-0.2,0-0.2,0l-0.2-0.5c-0.2-0.4-0.6-0.7-1.1-0.7h-0.1c-0.6,0-1.2,0.5-1.2,1.1
					l-0.1,1.2l-1.1-1.1c0,0,0,0,0,0C-5.7,6.3-5.4,6.1-5.1,6l0.2,0c0.7-0.1,1.2-0.8,1.1-1.5l-0.1-0.9C-3.8,3-4.4,2.5-5,2.5
					c-0.1,0-0.1,0-0.2,0l-2.2,0.4c-0.2,0-0.3,0-0.5,0c-0.6,0-1.1-0.2-1.6-0.4L-10.3,2C-10.5,1.9-10.7,1.9-10.9,1.9L-10.9,1.9
					L-10.9,1.9z" />
          <path className="st3" d="M0,1.5c0.2,0,0.4,0,0.5,0.1L2.7,2C3,2.1,3.1,2.3,2.9,2.4L0.2,5.2C0.1,5.3-0.2,5.4-0.4,5.4l-0.4,0
					c-0.1,0-0.1,0-0.2,0c-0.4,0-0.8-0.2-0.8-0.4l0-0.4c0-0.1-0.1-0.2-0.3-0.3l-0.2-0.1C-2.5,4.2-2.7,4-2.6,3.8
					c0.1-0.1,0-0.2-0.1-0.3l-0.5-0.3c-0.2-0.1-0.2-0.3,0-0.4l1.6-1C-1.4,1.7-1.2,1.6-1,1.6l0.9-0.1C-0.1,1.5,0,1.5,0,1.5 M0,1
					c0,0-0.1,0-0.1,0L-1,1c-0.3,0-0.6,0.1-0.8,0.3l-1.6,1l0,0l0,0C-3.7,2.5-3.8,2.8-3.8,3c0,0.2,0.1,0.5,0.4,0.6l0.3,0.2
					c0,0.1,0,0.2,0,0.3C-3,4.4-2.8,4.6-2.5,4.8l0.2,0.1l0,0.2c0,0.2,0.1,0.4,0.2,0.6C-1.9,5.9-1.4,6-1,6c0.1,0,0.1,0,0.2,0l0.4,0
					c0.2,0,0.7-0.1,0.9-0.4l2.8-2.7l0,0l0,0c0.1-0.2,0.2-0.4,0.1-0.6C3.5,1.9,3.3,1.7,3,1.5l-0.1,0l-0.1,0L0.7,1.1C0.5,1,0.2,1,0,1
					L0,1z" />
          <path className="st3" d="M6.3,4.4c0.1,0,0.2,0.1,0.3,0.1l0.7,0.9c0.1,0.2,0.2,0.5,0.1,0.7v0C7.3,6.3,7.2,6.4,7,6.4L6.7,6.6
					c0,0-0.1,0-0.1,0c-0.1,0-0.2-0.1-0.2-0.2c0-0.1-0.1-0.1-0.2-0.1c-0.1,0-0.1,0-0.1,0.1l0,0C6,6.4,6,6.4,5.9,6.4c0,0-0.1,0-0.1,0
					l-0.1,0C5.5,6.2,5.4,5.9,5.6,5.7l0.2-0.4c0,0,0-0.1,0-0.1l0-0.2c0-0.2,0-0.3,0.2-0.4l0.2-0.1C6.1,4.4,6.2,4.4,6.3,4.4 M6.3,3.8
					C6.1,3.8,5.9,3.9,5.8,4L5.6,4.1C5.3,4.3,5.1,4.7,5.2,5l0,0.1L5.1,5.4C4.8,5.9,5,6.5,5.4,6.8l0.1,0c0.1,0.1,0.2,0.1,0.4,0.1
					c0,0,0.1,0,0.1,0c0.1,0.1,0.3,0.2,0.5,0.2c0.1,0,0.2,0,0.3-0.1l0.4-0.2c0.2-0.1,0.4-0.3,0.6-0.6C8,5.9,8,5.5,7.7,5.1L7,4.2
					C6.8,3.9,6.6,3.8,6.3,3.8L6.3,3.8z" />
          <path className="st3" d="M22.7,2c0.1,0,0.3,0,0.4,0l3.5,0.5l6.1,0.7c0.3,0,0.5,0.2,0.6,0.5l0.2,0.4c0.1,0.2,0,0.4-0.1,0.5l-0.9,0.6
					c-0.1,0-0.2,0.1-0.2,0.1l-0.7,0.1c-0.2,0-0.4,0.2-0.3,0.4l0,0.2c0,0,0,0.1,0,0.1l-0.7,0.9c-0.1,0.1-0.1,0.1-0.2,0.1
					C30.1,7.2,30,7.2,30,7l0-0.4c0-0.2,0-0.3,0.1-0.5l1.1-1.4c0,0,0-0.1,0-0.1h0l-0.1,0c-0.3,0-0.6,0.1-0.9,0.3l-0.3,0.2
					c-0.2,0.2-0.5,0.3-0.8,0.3c0,0,0,0,0,0l-0.2,0c0,0,0,0,0,0c-0.4,0-0.7,0.1-1,0.4l-0.5,0.4c-0.1,0.1-0.1,0.2,0,0.3l0.3,0.2
					c0.2,0.1,0.2,0.3,0.2,0.5l-0.6,1.8c0,0.1-0.1,0.1-0.1,0.1l-0.5,0c0,0-0.1,0-0.1,0.1L26,9.8c0,0-0.1,0.1,0,0.2l0.2,0.6
					c0,0.1,0,0.1,0,0.2L25.8,11c0,0-0.1,0-0.1,0c-0.1,0-0.1-0.1-0.2-0.1l-0.1-0.6c0,0,0-0.1,0-0.1l-0.3-0.3c0,0-0.1-0.1-0.1-0.1
					c0,0-0.1,0-0.1,0l-0.4,0.4c-0.1,0-0.1,0.1,0,0.2l0.3,0.8c0.1,0.3,0.1,0.6,0,0.8l-0.3,0.6C24.4,12.9,24.2,13,24,13c0,0,0,0,0,0
					l-0.8,0c0,0,0,0,0,0c-0.1,0-0.3,0.1-0.3,0.2c-0.2,0.2-0.2,0.5,0,0.7l0.2,0.3c0.1,0.2,0.1,0.4,0,0.6L22.7,15c0,0-0.1,0.1-0.1,0.1
					c0,0-0.1,0-0.1-0.1l-0.3-0.4c0,0-0.1-0.1-0.1-0.1c-0.1,0-0.2,0.1-0.2,0.2c0,0.1,0,0.2,0,0.2c0,0,0.4,0.5,0.6,0.7
					c0.1,0.1,0.2,0.2,0.2,0.4l0.1,0.5c0.1,0.4,0.3,0.6,0.7,0.8l1.2,0.4c0.1,0,0.1,0.1,0.1,0.2l0,0c0,0-0.1,0.1-0.1,0.1c0,0,0,0,0,0
					l-1.6-0.4c-0.2,0-0.4-0.2-0.5-0.3L21,15.7c0,0,0-0.1,0-0.2l0,0c0,0,0.1,0,0.1,0c0,0,0,0,0.1,0l0.5,0.3c0,0,0,0,0.1,0
					c0.1,0,0.1-0.1,0.1-0.2l-0.3-0.5c0,0,0,0,0,0l-0.1-0.9c0-0.1-0.1-0.2-0.2-0.2c0,0,0,0-0.1,0c0,0-0.1,0-0.1,0
					c-0.1,0-0.2,0-0.2-0.1l-0.4-0.9c0-0.1-0.1-0.1-0.2-0.1c0,0-0.1,0-0.1,0l-0.7,0.5c-0.3,0.2-0.5,0.5-0.5,0.9l0,0.2
					c0,0.1-0.1,0.2-0.1,0.2L18.7,15C18.6,15,18.5,15,18.5,15c-0.1,0-0.3-0.1-0.3-0.2l-0.3-1c-0.1-0.2-0.2-0.4-0.3-0.6L17,12.7
					c-0.1-0.1-0.2-0.2-0.4-0.2l-0.9-0.2c-0.4-0.1-0.7-0.3-1-0.5c0,0-0.1-0.1-0.2-0.1c-0.1,0-0.1,0-0.2,0.1c-0.1,0.1-0.1,0.2,0,0.3
					l0.2,0.5c0,0.1,0.1,0.1,0.2,0.1c0,0,0.1,0,0.1,0l0.2-0.1c0,0,0,0,0,0c0.2,0,0.6,0.7,0.3,0.9l-1.1,0.6c-0.1,0.1-0.2,0.1-0.4,0.1
					c-0.3,0-0.5-0.1-0.6-0.4l-0.8-1.6c0-0.1-0.1-0.1-0.2-0.1l0,0c-0.1,0-0.2,0.1-0.2,0.2l0.9,2c0.1,0.3,0.4,0.4,0.7,0.4
					c0.1,0,0.2,0,0.4-0.1c0,0,0.1,0,0.1,0c0.2,0,0.3,0.2,0.3,0.3l-0.1,0.3c-0.1,0.3-0.2,0.6-0.4,0.8l-0.5,0.5
					c-0.2,0.2-0.4,0.5-0.3,0.9l0,0.9c0,0.2-0.1,0.4-0.2,0.5c-0.2,0.2-0.4,0.5-0.5,0.7l-0.7,1.2c-0.2,0.4-0.6,0.7-1,0.8l-0.2,0.1
					c0,0-0.1,0-0.1,0c-0.2,0-0.5-0.1-0.5-0.4L9,19.7c-0.1-0.4-0.2-0.8-0.1-1.2l0-0.1c0.1-0.3,0-0.6-0.1-0.9l-0.3-1.1
					c-0.1-0.3-0.4-0.6-0.7-0.6c0,0,0,0,0,0l-1.2,0.1c0,0,0,0-0.1,0c-0.3,0-0.6-0.1-0.8-0.3L5.1,15c-0.3-0.3-0.5-0.7-0.4-1.1l0-0.5
					c0.1-0.6,0.3-1.2,0.7-1.7l0.2-0.2C6,11.1,6.5,10.9,7,10.8l1.3-0.3c0,0,0,0,0.1,0c0.2,0,0.4,0.2,0.4,0.3c0,0.1,0.1,0.3,0.2,0.3
					l0.8,0.6c0,0,0.1,0,0.1,0c0.1,0,0.1,0,0.1-0.1l0.3-0.4c0,0,0.1-0.1,0.1-0.1c0,0,0,0,0,0l1.4,0.4c0,0,0,0,0,0
					c0.1,0,0.1,0,0.2-0.1l0.2-0.5c0-0.1,0-0.2-0.1-0.2l-0.7-0.1c-0.1,0-0.1,0-0.1-0.1l0-0.1c0-0.1,0-0.1,0-0.2
					c0.1-0.1,0.2-0.3,0.3-0.4c0,0,0.1-0.1,0.2-0.1c0,0,0,0,0,0c0.4,0,1.2,0.1,1.3,0.1c0,0,0,0,0,0c0,0,0.3-0.6,0.2-0.6
					c0,0-1.1-0.6-1.5-0.8c0,0-0.1,0-0.1,0c-0.1,0-0.1,0-0.1,0.1l-0.5,0.6c0,0.1,0,0.2,0,0.2l0.1,0.1c0,0,0,0.1,0,0.1
					c0,0.1-0.1,0.2-0.2,0.3c0,0-0.1,0.1-0.1,0.1c0,0,0,0,0,0c0,0-0.1,0-0.1,0c-0.1,0-0.1,0-0.1,0.1l-0.1,0.2c0,0.1-0.1,0.1-0.2,0.1
					c0,0-0.1,0-0.1-0.1L10,10.2c0,0-0.1-0.1,0-0.2c0-0.2,0-0.5-0.2-0.6L9.4,9.1c0,0-0.1-0.1-0.1-0.1c0,0-0.1,0-0.1,0
					C9,9.2,9,9.3,9.1,9.4l0.5,0.4c0.1,0.1,0.1,0.4-0.2,0.4c0,0,0,0-0.1,0c-0.1,0-0.3-0.1-0.3-0.2L8.7,9.5C8.6,9.4,8.4,9.3,8.2,9.3
					c-0.1,0-0.1,0-0.2,0l-0.1,0C7.7,9.5,7.5,9.6,7.4,9.8l-0.3,0.4c-0.1,0.2-0.4,0.3-0.6,0.3c0,0-0.1,0-0.1,0L6,10.5
					c-0.2,0-0.4-0.2-0.3-0.4l0-0.1c0-0.4,0.3-0.6,0.6-0.6c0,0,0,0,0.1,0c0,0,0,0,0,0c0.2,0,0.4-0.3,0.3-0.5L6.6,8.5
					C6.5,8.3,6.5,8.1,6.8,8l0.5-0.2c0.2-0.1,0.3-0.2,0.4-0.4l0,0c0-0.1,0.1-0.2,0.3-0.2H8c0.2,0,0.3-0.2,0.2-0.3
					c0-0.1,0-0.2,0.1-0.2c0,0,0.1,0,0.1,0c0.1,0,0.2,0.1,0.2,0.1l0.1,0.2c0,0.1,0.1,0.1,0.2,0.1L9.8,7c0,0,0,0,0,0
					c0.1,0,0.1,0,0.2-0.1l0.2-0.6c0-0.1,0.1-0.1,0.2-0.1c0,0,0.1,0,0.1,0l0.2,0.1c0,0,0,0,0.1,0c0,0,0.1,0,0.1-0.1l0,0
					c0,0,0-0.1,0-0.1L10.6,6c-0.1,0-0.1-0.1,0-0.2l0.1-0.1c0-0.1,0.1-0.1,0.1-0.1l0.2,0c0.2,0,0.2-0.2,0.1-0.3l0,0c0,0-0.1,0-0.1,0
					c0,0,0,0,0,0c0,0,0,0,0,0c-0.3,0-0.6-0.2-0.7-0.4l-0.1-0.1c0-0.1,0-0.2,0.1-0.2l0,0c0,0,0.1-0.1,0.1-0.1l0.2-0.6
					c0-0.1,0-0.1-0.1-0.1l-0.1,0c0,0,0,0,0,0c0,0-0.1,0-0.1,0.1L9.7,4.7c0,0.1,0,0.2,0,0.2C9.9,5.1,10,5.4,9.9,5.6L9.6,6.3
					c0,0,0,0.1-0.1,0.1c-0.1,0-0.1,0.1-0.2,0.1c-0.2,0-0.4-0.1-0.5-0.3L8.7,5.8c0-0.1-0.1-0.1-0.2-0.1c0,0-0.1,0-0.1,0L8.2,5.9
					c-0.1,0-0.1,0.1-0.2,0.1c0,0-0.1,0-0.1,0c-0.1,0-0.2-0.1-0.2-0.3l0-0.5c0-0.2,0.1-0.4,0.3-0.6c0.2-0.2,0.4-0.4,0.5-0.7l0.1-0.5
					C8.7,3.2,8.8,3,9.1,2.9l0.7-0.3c0.1-0.1,0.3-0.1,0.4-0.1c0.1,0,0.1,0,0.2,0l2.2,0.4c0.1,0,0.3,0,0.4,0c0.1,0,0.1,0,0.2,0
					l4.3,0.1c0,0,0.1,0,0.1,0c0.4,0,0.9-0.1,1.3-0.1l3.6-0.8C22.5,2,22.6,2,22.7,2 M14.8,10.6c0.1,0,0.2-0.1,0.2-0.2
					c0-0.3,0.1-0.7,0-0.7c0,0-0.2-0.3-0.3-0.4c-0.1-0.1,0-0.2,0.1-0.3L14.9,9c0.1,0,0.1-0.1,0.1-0.2l0-0.1c0-0.1-0.1-0.1-0.2-0.1
					c0,0-0.1,0-0.1,0L14,9c-0.1,0-0.1,0.1-0.1,0.2l0.3,0.6c0,0,0,0.1,0,0.1l-0.1,0.4c0,0.1,0,0.2,0.1,0.2L14.8,10.6
					C14.8,10.6,14.8,10.6,14.8,10.6 M22.7,1.5c-0.1,0-0.2,0-0.3,0c0,0,0,0-0.1,0l-3.6,0.8c-0.4,0.1-0.8,0.1-1.2,0.1c0,0-0.1,0-0.1,0
					l-4.3-0.1c0,0,0,0,0,0c0,0,0,0-0.1,0c0,0-0.1,0-0.1,0c-0.1,0-0.2,0-0.3,0L10.5,2c-0.1,0-0.2,0-0.3,0C10,1.9,9.7,2,9.5,2.1
					L8.8,2.4C8.5,2.6,8.2,2.9,8.1,3.3L8,3.8c0,0.1-0.1,0.3-0.3,0.4c-0.3,0.3-0.5,0.6-0.5,1l0,0.5c0,0.3,0.2,0.6,0.5,0.7
					c0,0.1,0,0.1-0.1,0.2C7.4,6.7,7.2,6.9,7.1,7.2c0,0,0,0,0,0L6.6,7.5C6.3,7.6,6.1,7.8,6,8C5.9,8.2,6,8.5,6.1,8.8
					c-0.5,0.1-0.9,0.6-1,1.1l0,0.1c0,0.4,0.2,0.7,0.5,0.9c-0.1,0.1-0.2,0.2-0.3,0.3l-0.2,0.2c-0.5,0.6-0.8,1.2-0.8,2l0,0.5
					c-0.1,0.6,0.2,1.1,0.6,1.5l0.6,0.5c0.3,0.3,0.7,0.5,1.2,0.5c0,0,0,0,0.1,0l1.2-0.1h0c0.1,0,0.2,0.1,0.2,0.2l0.3,1.1
					c0.1,0.2,0.1,0.5,0,0.7l0,0.1c-0.1,0.5,0,1,0.2,1.5l0.6,1.7c0.2,0.4,0.6,0.7,1,0.7c0.1,0,0.2,0,0.3,0l0.2-0.1
					c0.6-0.2,1.1-0.5,1.4-1.1l0.7-1.2c0.2-0.3,0.3-0.5,0.4-0.6c0.3-0.2,0.4-0.6,0.4-0.9l0-0.9c0,0,0-0.1,0-0.1c0-0.2,0-0.3,0.2-0.4
					l0.5-0.5c0.3-0.3,0.5-0.7,0.6-1.1l0.1-0.3c0.1-0.2,0-0.5-0.2-0.7c0,0,0,0,0,0l0.8-0.5c0.2-0.1,0.5-0.5,0.3-0.9
					c0,0,0-0.1-0.1-0.2l0.7,0.1c0,0,0.1,0,0.1,0l0.5,0.6c0.1,0.1,0.2,0.3,0.2,0.4l0.3,1c0.1,0.4,0.4,0.6,0.8,0.6
					c0.2,0,0.4-0.1,0.6-0.2l0.2-0.1c0.2-0.1,0.3-0.3,0.3-0.6l0-0.2c0-0.2,0.1-0.4,0.3-0.5l0.3-0.3l0.2,0.5c0.1,0.2,0.3,0.4,0.5,0.4
					l0,0.4c-0.1,0-0.2,0.1-0.3,0.2l0,0c-0.2,0.2-0.3,0.6,0,0.9l1.3,1.5c0.2,0.2,0.5,0.4,0.8,0.5l1.6,0.4c0,0,0.1,0,0.1,0
					c0.2,0,0.4-0.1,0.5-0.3c0.1-0.2,0.1-0.4,0.1-0.6s-0.2-0.3-0.4-0.4l-1.2-0.4c-0.2-0.1-0.3-0.2-0.3-0.3l-0.1-0.5
					c0-0.1-0.1-0.3-0.2-0.4c0.1,0,0.1-0.1,0.2-0.2l0.3-0.3c0.3-0.3,0.3-0.9,0-1.2l-0.2-0.3l0.7,0h0c0.4,0,0.8-0.2,1-0.6l0.3-0.6
					c0.1-0.3,0.2-0.6,0.1-0.9c0.1,0.1,0.2,0.1,0.3,0.1c0.2,0,0.4-0.1,0.5-0.2l0.2-0.2c0.2-0.2,0.3-0.4,0.2-0.7L26.6,10l0.2-0.2
					l0.4,0c0.3,0,0.5-0.2,0.6-0.5l0.6-1.8c0.1-0.4,0-0.8-0.3-1l0.2-0.1c0.2-0.2,0.4-0.2,0.6-0.2h0l0.2,0c0,0,0,0,0,0
					c0.2,0,0.3,0,0.5-0.1c-0.1,0.2-0.2,0.4-0.1,0.7l0,0.4c0,0.4,0.4,0.7,0.8,0.7c0.2,0,0.5-0.1,0.6-0.3l0.7-0.9
					c0.1-0.2,0.2-0.4,0.1-0.6l0-0.1l0.5-0.1c0.2,0,0.3-0.1,0.5-0.2l0.9-0.6c0.4-0.2,0.5-0.7,0.4-1.1l-0.2-0.4
					c-0.2-0.4-0.6-0.8-1-0.8L26.6,2l-3.4-0.5C23,1.5,22.8,1.5,22.7,1.5L22.7,1.5z M11.8,9.4L11.8,9.4c0.1,0,0.2,0,0.2,0
					C11.9,9.4,11.9,9.4,11.8,9.4L11.8,9.4z M7.8,10.1C7.9,10,8,9.9,8.1,9.9l0.1,0c0,0,0,0,0,0c0,0,0,0,0,0L8.3,10
					c-0.1,0-0.1,0-0.1,0L7.8,10.1L7.8,10.1z M9.4,10.7c0,0,0.1,0,0.1,0c0.1,0,0.1,0,0.2,0l0.2,0.2c0,0,0,0,0,0c0,0-0.1,0.1-0.1,0.1
					l-0.1,0.1l-0.4-0.3c0,0,0-0.1,0-0.1C9.3,10.7,9.3,10.7,9.4,10.7L9.4,10.7z" />
          <path className="st3" d="M28.1,7.7C28.1,7.7,28.1,7.7,28.1,7.7c0.2,0,0.3,0.1,0.3,0.3l-0.1,0.7c0,0.2,0,0.3,0.2,0.4
					c0.1,0.1,0.1,0.3,0,0.4c-0.1,0.1-0.3,0.2-0.3,0.3c0,0.1-0.1,0.4-0.1,0.7c0,0.3-0.1,0.5-0.4,0.6l-1.1,0.7c0,0,0,0-0.1,0
					c-0.1,0-0.1,0-0.1-0.1l0-0.3c0,0,0-0.1,0-0.1l0.6-0.4c0.2-0.2,0.4-0.4,0.5-0.6l0.4-0.9c0.1-0.1,0.1-0.3,0.1-0.4L28,7.8
					C28,7.7,28,7.7,28.1,7.7 M28.1,7.1c-0.3,0-0.6,0.3-0.7,0.6l-0.1,1.1c0,0.1,0,0.2-0.1,0.3L26.9,10c-0.1,0.2-0.2,0.3-0.3,0.4
					L26,10.9c-0.2,0.1-0.3,0.3-0.2,0.6l0,0.3c0,0.3,0.3,0.6,0.7,0.6c0.1,0,0.2,0,0.3-0.1l1.1-0.7c0.4-0.2,0.6-0.6,0.6-1.1
					c0-0.2,0-0.4,0-0.4c0,0,0.1-0.1,0.2-0.2C28.9,9.7,29,9.5,29,9.2c0-0.2-0.1-0.4-0.3-0.6L28.9,8c0-0.2,0-0.5-0.2-0.6
					C28.5,7.2,28.3,7.1,28.1,7.1L28.1,7.1L28.1,7.1L28.1,7.1z" />
          <path className="st3" d="M25.4,12.4c0.1,0,0.1,0,0.1,0.1l0,0.2c0,0.1,0,0.2-0.1,0.3c-0.1,0.1-0.1,0.2-0.1,0.3l0,0.1h-0.1l-0.2-0.3
					c-0.1-0.1-0.1-0.3,0-0.4l0.1-0.3C25.2,12.4,25.3,12.4,25.4,12.4L25.4,12.4 M25.4,11.8L25.4,11.8c-0.3,0-0.5,0.1-0.6,0.3
					l-0.1,0.3c-0.2,0.3-0.1,0.6,0,0.9l0.2,0.3l0.2,0.3h0.3h0.1H26l-0.1-0.6l0-0.1c0.1-0.2,0.2-0.4,0.1-0.7l0-0.2
					C25.9,12.1,25.7,11.8,25.4,11.8L25.4,11.8z" />
          <path className="st3" d="M24.6,15.4C24.7,15.4,24.7,15.4,24.6,15.4c0.2,0.1,0.3,0.1,0.3,0.3v0.3c0,0,0,0,0,0.1l-0.2,0.8
					c0,0.1-0.2,0.2-0.3,0.2c0,0,0,0-0.1,0l-0.7-0.2c-0.1,0-0.1-0.1-0.2-0.2l-0.1-0.3c-0.1-0.1,0-0.3,0.1-0.3l1.1-0.6
					C24.5,15.4,24.6,15.4,24.6,15.4 M24.6,14.8c-0.1,0-0.3,0-0.4,0.1l-1.1,0.6c-0.4,0.2-0.5,0.6-0.3,1l0.1,0.3
					c0.1,0.2,0.3,0.4,0.6,0.5l0.7,0.2c0.1,0,0.1,0,0.2,0c0.4,0,0.7-0.3,0.8-0.7l0.2-0.8c0-0.1,0-0.1,0-0.2v-0.3
					c0-0.3-0.2-0.6-0.5-0.8C24.8,14.8,24.7,14.8,24.6,14.8L24.6,14.8z" />
          <path className="st3" d="M27.1,16.4c0.1,0,0.1,0,0.2,0l1.3,0.6c0.1,0.1,0.2,0.2,0.3,0.3l0.2,0.5l0,0.2l-0.5-0.4
					c-0.1-0.1-0.2-0.1-0.2-0.1c-0.1,0-0.2,0-0.3,0.1c0,0,0,0-0.1,0l-0.4,0c0,0,0,0,0,0c-0.2,0-0.3-0.1-0.4-0.2l-0.6-0.7
					c-0.1-0.1,0-0.4,0.1-0.4L27.1,16.4C27,16.4,27.1,16.4,27.1,16.4 M27.1,15.9c0,0-0.1,0-0.1,0l-0.3,0c-0.3,0-0.5,0.2-0.6,0.5
					c-0.1,0.3,0,0.6,0.1,0.8l0.6,0.7c0.2,0.2,0.5,0.4,0.8,0.4c0,0,0.1,0,0.1,0l0.4,0c0.1,0,0.2,0,0.3-0.1l0.4,0.3l0.7,0.6l0.2-0.9
					l0-0.2l0-0.1l0-0.1l-0.2-0.5c-0.1-0.3-0.3-0.5-0.6-0.6L27.5,16C27.4,15.9,27.2,15.9,27.1,15.9L27.1,15.9z" />
          <path className="st3" d="M26.3,18C26.3,18,26.4,18,26.3,18l0.7,0.1c0.1,0,0.1,0.1,0.1,0.1L27,18.6c0,0.1,0,0.1,0.1,0.1l0.4,0.1
					c0,0,0,0,0.1,0c0.2,0,0.3-0.1,0.3-0.3l0-0.3c0-0.1,0-0.1,0.1-0.1c0,0,0,0,0,0l0.1,0c0,0,0.1,0,0.1,0.1l0.1,0.2
					c0.2,0.4,0.4,0.7,0.7,1l0.6,0.6c0.1,0.1,0.2,0.3,0.2,0.5l-0.3,1.6c0,0.1-0.1,0.3-0.2,0.4l-0.2,0.1c-0.1,0.1-0.3,0.1-0.4,0.1
					c-0.1,0-0.2,0-0.2,0l-0.3-0.1c-0.2-0.1-0.4-0.2-0.5-0.4L27.3,22c0-0.1-0.1-0.1-0.2-0.1c0,0-0.1,0-0.1,0.1c0,0-0.1,0.1-0.1,0.1
					c0,0-0.1,0-0.1,0l-0.3-0.2c-0.1-0.1-0.3-0.1-0.4-0.1c-0.1,0-0.1,0-0.2,0L25,22c-0.1,0-0.2,0-0.3,0c-0.2,0-0.4-0.1-0.5-0.2
					l-0.2-0.2c-0.1-0.1-0.1-0.2,0-0.3l0,0c0,0,0-0.1,0-0.2L23.7,20c0-0.2,0.1-0.4,0.3-0.5l0.7-0.2c0.1,0,0.3-0.1,0.4-0.2l0.9-0.8
					C26,18.1,26.2,18,26.3,18 M26.3,17.5L26.3,17.5c-0.3,0-0.6,0.1-0.8,0.3l-0.9,0.8c-0.1,0.1-0.1,0.1-0.2,0.1L23.8,19
					c-0.4,0.2-0.7,0.6-0.6,1.1l0.2,1.1c-0.1,0.3,0,0.7,0.2,0.9l0.2,0.2c0.2,0.2,0.5,0.3,0.9,0.3c0.1,0,0.3,0,0.4-0.1l1-0.3
					c0,0,0,0,0,0c0,0,0,0,0.1,0l0.3,0.2c0.1,0.1,0.3,0.2,0.5,0.2c0,0,0.1,0,0.1,0c0.2,0.2,0.4,0.4,0.7,0.5l0.3,0.1
					c0.1,0,0.3,0.1,0.4,0.1c0.3,0,0.5-0.1,0.7-0.2l0.2-0.1c0.2-0.2,0.4-0.4,0.5-0.7l0.3-1.6c0.1-0.4,0-0.7-0.3-1L29.3,19
					c-0.3-0.3-0.5-0.5-0.6-0.9L28.6,18c-0.1-0.2-0.3-0.4-0.6-0.4l-0.1,0h0h0c-0.2,0-0.3,0.1-0.5,0.2c-0.1-0.1-0.3-0.2-0.4-0.2
					l-0.6-0.1C26.4,17.5,26.4,17.5,26.3,17.5L26.3,17.5z" />
          <path className="st3" d="M14.2,18.4c0.1,0,0.2,0,0.2,0.1l0.2,0.4c0,0.1,0,0.2,0,0.3l-0.3,0.9c0,0.1-0.2,0.2-0.3,0.2c0,0,0,0,0,0l0,0
					c-0.3,0-0.5-0.3-0.5-0.6l0.1-0.4c0-0.2,0.1-0.4,0.3-0.5l0.3-0.3C14.1,18.4,14.2,18.4,14.2,18.4 M14.2,17.8
					c-0.2,0-0.4,0.1-0.5,0.2l-0.3,0.3c-0.3,0.2-0.4,0.5-0.5,0.9l-0.1,0.4c0,0.3,0,0.6,0.2,0.8c0.2,0.2,0.4,0.4,0.7,0.4
					c0,0,0.1,0,0.1,0c0.4,0,0.7-0.2,0.8-0.6l0.3-0.9c0.1-0.2,0.1-0.5,0-0.7l-0.2-0.4C14.8,18,14.5,17.8,14.2,17.8L14.2,17.8z" />
          <path className="st3" d="M-3.7,14.2c0.1,0,0.2,0,0.3,0c0.4,0.1,1.1,0.3,1.4,0.4c0.1,0,0.1,0.1,0.1,0.2L-2,15.1
					c0,0.1-0.1,0.1-0.2,0.1c0,0,0,0,0,0l-1.5-0.2c-0.1,0-0.1,0-0.2,0c-0.1,0-0.1,0-0.2,0l-0.3,0c0,0-0.1,0-0.1,0
					c-0.2,0-0.4-0.1-0.5-0.2L-5,14.7c-0.1-0.1,0-0.2,0-0.2c0.2-0.1,0.7-0.2,1-0.2C-3.9,14.3-3.8,14.2-3.7,14.2 M-3.7,13.7
					c-0.1,0-0.3,0-0.4,0c-0.3,0.1-0.7,0.2-1,0.2c-0.2,0.1-0.4,0.2-0.5,0.4c-0.1,0.2,0,0.5,0.2,0.6l0.1,0.1c0.2,0.2,0.6,0.4,0.9,0.4
					c0.1,0,0.1,0,0.2,0l0.3,0c0,0,0.1,0,0.1,0c0,0,0.1,0,0.1,0l1.5,0.2c0,0,0.1,0,0.1,0c0.3,0,0.5-0.1,0.6-0.3l0.1-0.1
					c0.1-0.2,0.1-0.4,0.1-0.6c-0.1-0.2-0.2-0.4-0.5-0.4L-2.6,14l-0.6-0.2C-3.4,13.7-3.6,13.7-3.7,13.7L-3.7,13.7z" />
          <path className="st3" d="M-1.2,14.9C-1.2,14.9-1.2,14.9-1.2,14.9c0.4,0.1,1.2,0.5,1.1,0.7c0,0-0.1,0.1-0.2,0.1c0,0,0,0-0.1,0
					l-1.2-0.3c0,0,0,0,0-0.1l0.2-0.2C-1.3,14.9-1.3,14.9-1.2,14.9 M-1.2,14.4c-0.3,0-0.5,0.1-0.6,0.3L-2,14.9
					c-0.1,0.2-0.1,0.3-0.1,0.5c0.1,0.2,0.2,0.3,0.4,0.4l1.2,0.3c0.1,0,0.1,0,0.2,0c0.2,0,0.4-0.1,0.5-0.2c0.2-0.2,0.3-0.4,0.2-0.6
					c-0.2-0.5-1.2-0.9-1.5-1C-1.1,14.4-1.1,14.4-1.2,14.4L-1.2,14.4z" />
        </g>
      </g>
      <g>
        <defs>
          <circle id="SVGID_4_" cx="10.8" cy={12} r="10.8" />
        </defs>
        <clipPath id="SVGID_5_">
          <use xlinkHref="#SVGID_4_" style={{overflow: 'visible'}} />
        </clipPath>
        <g className="st4">
          <linearGradient id="SVGID_6_" gradientUnits="userSpaceOnUse" x1="30.6007" y1="24.1486" x2="30.6007" y2="-1.9062" gradientTransform="matrix(1 0 0 -1 0 26)">
            <stop offset={0} style={{stopColor: '#AEEA00'}} />
            <stop offset="0.2373" style={{stopColor: '#ADE903'}} />
            <stop offset="0.3915" style={{stopColor: '#A9E40B'}} />
            <stop offset="0.522" style={{stopColor: '#A2DC1A'}} />
            <stop offset="0.6386" style={{stopColor: '#98D12F'}} />
            <stop offset="0.7459" style={{stopColor: '#8BC34A'}} />
            <stop offset={1} style={{stopColor: '#8BC34A'}} />
          </linearGradient>
          <path className="st5" d="M30.8,21.9c0,0-0.8,0.6-0.6,0.9c0.2,0.3,0.3,1,0.6,0.5C31.1,22.9,31.3,21.5,30.8,21.9z" />
          <linearGradient id="SVGID_7_" gradientUnits="userSpaceOnUse" x1="28.958" y1="24.1486" x2="28.958" y2="-1.9062" gradientTransform="matrix(1 0 0 -1 0 26)">
            <stop offset={0} style={{stopColor: '#AEEA00'}} />
            <stop offset="0.2373" style={{stopColor: '#ADE903'}} />
            <stop offset="0.3915" style={{stopColor: '#A9E40B'}} />
            <stop offset="0.522" style={{stopColor: '#A2DC1A'}} />
            <stop offset="0.6386" style={{stopColor: '#98D12F'}} />
            <stop offset="0.7459" style={{stopColor: '#8BC34A'}} />
            <stop offset={1} style={{stopColor: '#8BC34A'}} />
          </linearGradient>
          <path className="st6" d="M29.6,23.1c0.1-0.2,0.4-0.1,0.5,0.1c0.2,0.3,0.4,1-1.3,1.6C26.4,25.5,29,24.3,29.6,23.1z" />
          <linearGradient id="SVGID_8_" gradientUnits="userSpaceOnUse" x1="-7.5243" y1="24.1486" x2="-7.5243" y2="-1.9062" gradientTransform="matrix(1 0 0 -1 0 26)">
            <stop offset={0} style={{stopColor: '#AEEA00'}} />
            <stop offset="0.2373" style={{stopColor: '#ADE903'}} />
            <stop offset="0.3915" style={{stopColor: '#A9E40B'}} />
            <stop offset="0.522" style={{stopColor: '#A2DC1A'}} />
            <stop offset="0.6386" style={{stopColor: '#98D12F'}} />
            <stop offset="0.7459" style={{stopColor: '#8BC34A'}} />
            <stop offset={1} style={{stopColor: '#8BC34A'}} />
          </linearGradient>
          <path className="st7" d="M-0.8,17l-0.7-0.5c-0.4-0.3-0.9-0.5-1.4-0.6l-0.9-0.1c-0.4-0.1-0.7,0.1-0.9,0.4l0,0
					c-0.1,0.1-0.2,0.2-0.3,0.2l0,0c-0.2,0-0.3-0.1-0.3-0.3l0-0.4c0-0.2-0.2-0.3-0.3-0.3l0,0c-0.2,0-0.4-0.2-0.3-0.5l0-0.1
					c0.1-0.2-0.1-0.3-0.2-0.3l-0.3,0c-0.1,0-0.2,0-0.3,0.1l0,0c-0.2,0.2-0.5,0.1-0.6-0.1l0,0c-0.1-0.1-0.1-0.2,0-0.3l0.1-0.3
					c0.1-0.3,0.4-0.5,0.8-0.6l0.5-0.1c0.3,0,0.5,0.1,0.6,0.4l0,0c0.1,0.2,0.3,0.4,0.6,0.4l0,0c0.1,0,0.2-0.1,0.2-0.3l0-0.7
					c0-0.1,0-0.1,0.1-0.2l0,0c0.8-0.9,1.8-1.7,2.9-2.2l0.7-0.3c0.4-0.2,0.6-0.6,0.4-1l-0.8-1.9C-1.6,7.3-1.9,7.2-2,7.3l0,0
					c-0.2,0.1-0.4,0-0.5-0.1l-0.3-0.7c-0.1-0.2-0.4-0.4-0.6-0.4h-0.1c-0.4,0-0.7,0.3-0.7,0.6l-0.2,1.6c0,0.1-0.1,0.3-0.3,0.3l0,0
					c-0.1,0-0.2,0-0.3-0.1l-1.4-1.4c-0.2-0.2-0.2-0.4-0.1-0.6l0,0c0.2-0.5,0.7-0.9,1.2-1l0.2,0C-4.5,5.4-4.2,5-4.2,4.6l-0.1-0.9
					C-4.3,3.3-4.7,3-5.1,3l-2.2,0.4c-0.9,0.1-1.7,0-2.5-0.5l-0.7-0.5c-0.2-0.1-0.4-0.1-0.6,0c-0.2,0.1-0.4,0.1-0.5,0.2
					c-1,0.8-4.7,0.9-4.9,0.9l0,0c-0.1,0-0.2,0.1-0.2,0.2l-0.1,0.3c-0.1,0.1,0,0.3,0.2,0.3l0,0c0.2,0,0.3,0.3,0.1,0.4l-0.3,0.4l0,0
					c-0.1,0.1,0,0.2,0.1,0.3l1.3,0.6c0.5,0.2,0.9,0.3,1.4,0.2c0.3,0,0.5,0,0.8,0.2l0.1,0.1c0.5,0.3,1,0.8,1.4,1.3l0.4,0.6
					c0.3,0.4,0.4,0.9,0.5,1.5l0,0.8c0,0.4,0.1,0.8,0.3,1.2l1.5,2.6c0.2,0.4,0.6,0.7,1,0.8l1.6,0.6c0,0,0.1,0,0.1,0.1l0.6,0.9
					c0,0.1,0.1,0.1,0.2,0.1l0.1,0c0.2,0.1,0.3,0.3,0.2,0.5l0,0.1c-0.2,0.3-0.3,0.7-0.2,1.1l0.2,1.1c0.1,0.4,0.3,0.7,0.5,1l0.2,0.2
					c0.3,0.3,0.5,0.8,0.3,1.2L-5.3,26c-0.1,0.3-0.1,0.7,0,1l0.2,0.6c0.1,0.3,0.4,0.5,0.7,0.6l0.5,0.1c0.3,0,0.4-0.2,0.3-0.5
					l-0.2-0.3c-0.3-0.4-0.2-0.9,0.1-1.2l2.7-2.8c0.2-0.2,0.4-0.5,0.4-0.9l0-0.1c0-0.3,0.3-0.6,0.6-0.7l0.5-0.1
					c0.2,0,0.4-0.2,0.5-0.4l0.9-1.6c0.2-0.4,0.1-0.8-0.3-1l-1.3-0.6c-0.3-0.1-0.5-0.4-0.6-0.7l0,0C-0.5,17.4-0.6,17.2-0.8,17z" />
          <linearGradient id="SVGID_9_" gradientUnits="userSpaceOnUse" x1="-91.3196" y1="24.1486" x2="-91.3196" y2="-1.9062" gradientTransform="matrix(-1 0 0 -1 -91.4652 26)">
            <stop offset={0} style={{stopColor: '#AEEA00'}} />
            <stop offset="0.2373" style={{stopColor: '#ADE903'}} />
            <stop offset="0.3915" style={{stopColor: '#A9E40B'}} />
            <stop offset="0.522" style={{stopColor: '#A2DC1A'}} />
            <stop offset="0.6386" style={{stopColor: '#98D12F'}} />
            <stop offset="0.7459" style={{stopColor: '#8BC34A'}} />
            <stop offset={1} style={{stopColor: '#8BC34A'}} />
          </linearGradient>
          <path className="st8" d="M-1.8,5.1l0-0.4c0-0.1-0.1-0.2-0.3-0.3l-0.2-0.1C-2.5,4.2-2.7,4-2.6,3.8l0,0c0.1-0.1,0-0.2-0.1-0.3
					l-0.5-0.3c-0.2-0.1-0.2-0.3,0-0.4l1.6-1C-1.4,1.7-1.2,1.6-1,1.6l0.9-0.1c0.2,0,0.5,0,0.6,0.1L2.7,2C3,2.1,3.1,2.3,2.9,2.4
					L0.2,5.2C0.1,5.3-0.2,5.4-0.4,5.4l-0.4,0C-1.3,5.5-1.8,5.3-1.8,5.1z" />
          <radialGradient id="SVGID_10_" cx="10.3873" cy="23.3066" r="18.7287" gradientTransform="matrix(1 0 0 -1 0 26)" gradientUnits="userSpaceOnUse">
            <stop offset={0} style={{stopColor: '#AEEA00'}} />
            <stop offset="0.2373" style={{stopColor: '#ADE903'}} />
            <stop offset="0.3915" style={{stopColor: '#A9E40B'}} />
            <stop offset="0.522" style={{stopColor: '#A2DC1A'}} />
            <stop offset="0.6386" style={{stopColor: '#98D12F'}} />
            <stop offset="0.7459" style={{stopColor: '#8BC34A'}} />
            <stop offset={1} style={{stopColor: '#8BC34A'}} />
          </radialGradient>
          <path className="st9" d="M6,6.3L6,6.3c0.1-0.1,0.3-0.1,0.3,0.1l0,0c0,0.2,0.2,0.3,0.4,0.2L7,6.4c0.1-0.1,0.2-0.2,0.3-0.3v0
					c0.1-0.2,0.1-0.5-0.1-0.7L6.6,4.5C6.5,4.3,6.2,4.3,6.1,4.4L5.9,4.5C5.8,4.6,5.7,4.8,5.7,4.9l0,0.2c0,0,0,0.1,0,0.1L5.6,5.7
					c-0.1,0.2,0,0.5,0.2,0.7l0.1,0C5.9,6.4,6,6.4,6,6.3z" />
          <radialGradient id="SVGID_11_" cx="10.3873" cy="23.3066" r="18.7287" gradientTransform="matrix(1 0 0 -1 0 26)" gradientUnits="userSpaceOnUse">
            <stop offset={0} style={{stopColor: '#AEEA00'}} />
            <stop offset="0.2373" style={{stopColor: '#ADE903'}} />
            <stop offset="0.3915" style={{stopColor: '#A9E40B'}} />
            <stop offset="0.522" style={{stopColor: '#A2DC1A'}} />
            <stop offset="0.6386" style={{stopColor: '#98D12F'}} />
            <stop offset="0.7459" style={{stopColor: '#8BC34A'}} />
            <stop offset={1} style={{stopColor: '#8BC34A'}} />
          </radialGradient>
          <path className="st10" d="M33.4,4.2l-0.2-0.4c-0.1-0.3-0.3-0.4-0.6-0.5l-6.1-0.7l-3.5-0.5c-0.2,0-0.4,0-0.7,0l-3.6,0.8
					c-0.5,0.1-0.9,0.2-1.4,0.1L13.2,3c-0.2,0-0.4,0-0.6,0l-2.2-0.4c-0.2,0-0.4,0-0.6,0.1L9,2.9C8.8,3,8.7,3.2,8.6,3.5L8.5,3.9
					C8.4,4.2,8.2,4.4,8,4.6C7.8,4.7,7.7,4.9,7.8,5.2l0,0.5c0,0.1,0.1,0.2,0.2,0.3c0.1,0,0.2,0,0.3-0.1l0.2-0.2
					c0.1-0.1,0.2,0,0.3,0.1l0.1,0.3c0.1,0.3,0.4,0.4,0.7,0.3c0,0,0.1-0.1,0.1-0.1l0.3-0.7c0.1-0.2,0-0.5-0.1-0.6
					c-0.1-0.1-0.1-0.2,0-0.2l0.6-1.1c0-0.1,0.1-0.1,0.1,0l0.1,0c0.1,0,0.1,0.1,0.1,0.1l-0.2,0.6c0,0-0.1,0.1-0.1,0.1l0,0
					c-0.1,0-0.1,0.1-0.1,0.2l0.1,0.1c0.1,0.3,0.4,0.5,0.7,0.4c0,0,0.1,0,0.1,0l0,0c0.1,0.1,0.1,0.3-0.1,0.3l-0.2,0
					c-0.1,0-0.1,0.1-0.1,0.1l-0.1,0.1c0,0.1,0,0.1,0,0.2l0.1,0.1c0,0,0,0.1,0,0.1l0,0c0,0.1-0.1,0.1-0.1,0l-0.2-0.1
					c-0.1,0-0.2,0-0.2,0.1L9.9,6.9C9.9,7,9.8,7,9.8,7L8.8,6.9c-0.1,0-0.1-0.1-0.2-0.1L8.6,6.7C8.5,6.5,8.4,6.5,8.3,6.6
					C8.2,6.6,8.2,6.7,8.2,6.8C8.3,6.9,8.1,7.1,8,7.1H7.9c-0.1,0-0.2,0.1-0.3,0.2l0,0c0,0.2-0.2,0.4-0.4,0.4L6.8,8
					C6.6,8.1,6.5,8.3,6.6,8.5l0.1,0.3C6.8,9,6.6,9.3,6.4,9.3C6,9.2,5.7,9.5,5.6,9.9l0,0.1c0,0.2,0.1,0.4,0.3,0.4l0.4,0.1
					c0.3,0,0.6-0.1,0.7-0.3l0.3-0.4c0.1-0.2,0.3-0.3,0.5-0.4l0.1,0c0.2-0.1,0.5,0,0.7,0.2L9,10c0.1,0.1,0.2,0.2,0.4,0.2
					c0.3,0,0.3-0.3,0.2-0.4L9.1,9.4C9,9.3,9,9.2,9.1,9.1C9.2,9,9.3,9,9.4,9.1l0.4,0.3C9.9,9.6,10,9.8,9.9,10c0,0.1,0,0.1,0,0.2
					l0.3,0.3c0.1,0.1,0.3,0.1,0.3-0.1l0.1-0.2c0-0.1,0.1-0.1,0.2,0c0.1,0,0.1,0,0.2-0.1c0.1-0.1,0.1-0.2,0.2-0.3c0,0,0-0.1,0-0.1
					l-0.1-0.1c-0.1-0.1-0.1-0.1,0-0.2l0.5-0.6c0-0.1,0.1-0.1,0.2-0.1c0.4,0.2,1.5,0.7,1.5,0.8c0,0-0.2,0.5-0.2,0.6
					c0,0-0.9-0.1-1.4-0.1c-0.1,0-0.1,0-0.2,0.1c-0.1,0.1-0.2,0.3-0.3,0.4c0,0.1,0,0.1,0,0.2l0,0.1c0,0,0.1,0.1,0.1,0.1l0.7,0.1
					c0.1,0,0.2,0.1,0.1,0.2L12,11.6c0,0.1-0.1,0.1-0.2,0.1l-1.4-0.4c-0.1,0-0.1,0-0.2,0.1l-0.3,0.4c-0.1,0.1-0.2,0.1-0.2,0l-0.8-0.6
					c-0.1-0.1-0.2-0.2-0.2-0.3c0-0.2-0.2-0.4-0.4-0.3L7,10.8c-0.5,0.1-1,0.4-1.3,0.8l-0.2,0.2c-0.4,0.5-0.7,1-0.7,1.7l0,0.5
					c0,0.4,0.1,0.8,0.4,1.1l0.6,0.5c0.2,0.2,0.5,0.3,0.9,0.3l1.2-0.1c0.3,0,0.7,0.2,0.8,0.6l0.3,1.1c0.1,0.3,0.1,0.6,0.1,0.9l0,0.1
					c-0.1,0.4,0,0.8,0.1,1.2l0.6,1.7c0.1,0.3,0.4,0.4,0.7,0.4l0.2-0.1c0.4-0.1,0.8-0.4,1-0.8l0.7-1.2c0.2-0.3,0.3-0.5,0.5-0.7
					c0.1-0.1,0.2-0.3,0.2-0.5l0-0.9c0-0.3,0.1-0.6,0.3-0.9l0.5-0.5c0.2-0.2,0.4-0.5,0.4-0.8l0.1-0.3c0-0.2-0.2-0.4-0.4-0.3
					c-0.4,0.2-0.9,0-1.1-0.4l-0.9-2c-0.1-0.1,0-0.2,0.2-0.2l0,0c0.1,0,0.1,0,0.2,0.1l0.8,1.6c0.2,0.4,0.6,0.5,1,0.3l1.1-0.6
					c0.3-0.2-0.2-1-0.4-0.9l-0.2,0.1c-0.1,0.1-0.2,0-0.3-0.1l-0.2-0.5c0-0.1,0-0.2,0-0.3c0.1-0.1,0.3-0.1,0.4,0
					c0.3,0.3,0.6,0.5,1,0.5l0.9,0.2c0.2,0,0.3,0.1,0.4,0.2l0.5,0.6c0.1,0.2,0.3,0.4,0.3,0.6l0.3,1c0.1,0.2,0.3,0.3,0.5,0.2l0.2-0.1
					c0.1-0.1,0.1-0.1,0.1-0.2l0-0.2c0-0.4,0.2-0.7,0.5-0.9l0.7-0.5c0.1-0.1,0.2,0,0.3,0.1l0.4,0.9c0,0.1,0.2,0.1,0.3,0.1
					c0.1,0,0.2,0,0.3,0.2l0.1,0.9c0,0,0,0,0,0l0.3,0.5c0.1,0.1-0.1,0.2-0.2,0.1l-0.5-0.3c0,0-0.1,0-0.1,0l0,0c0,0,0,0.1,0,0.2
					l1.3,1.5c0.1,0.2,0.3,0.3,0.5,0.3l1.6,0.4c0,0,0.1,0,0.1,0l0,0c0-0.1,0-0.1-0.1-0.2l-1.2-0.4c-0.3-0.1-0.6-0.4-0.7-0.8l-0.1-0.5
					c0-0.1-0.1-0.3-0.2-0.4c-0.2-0.2-0.6-0.7-0.6-0.7c0,0,0-0.1,0-0.2c0-0.2,0.2-0.2,0.3-0.1l0.3,0.4c0.1,0.1,0.2,0.1,0.3,0l0.3-0.3
					c0.1-0.2,0.1-0.4,0-0.6l-0.2-0.3c-0.1-0.2-0.1-0.5,0-0.7c0.1-0.1,0.2-0.2,0.3-0.2l0.8,0c0.2,0,0.4-0.1,0.5-0.3l0.3-0.6
					c0.1-0.3,0.1-0.6,0-0.8l-0.3-0.8c0-0.1,0-0.1,0-0.2l0.4-0.4c0.1-0.1,0.2-0.1,0.2,0l0.3,0.3c0,0,0,0.1,0,0.1l0.1,0.6
					c0,0.1,0.2,0.2,0.3,0.1l0.2-0.2c0,0,0.1-0.1,0-0.2L26,10c0-0.1,0-0.1,0-0.2l0.4-0.4c0,0,0.1-0.1,0.1-0.1l0.5,0
					c0.1,0,0.1-0.1,0.1-0.1l0.6-1.8c0.1-0.2,0-0.4-0.2-0.5l-0.3-0.2c-0.1-0.1-0.1-0.2,0-0.3L27.8,6c0.3-0.3,0.6-0.4,1-0.4l0.2,0
					c0.3,0,0.6-0.1,0.8-0.3l0.3-0.2c0.3-0.2,0.6-0.3,0.9-0.3l0.1,0c0.1,0,0.1,0.1,0,0.1l-1.1,1.4C30,6.3,29.9,6.5,30,6.7L30,7
					c0,0.2,0.3,0.3,0.4,0.1l0.7-0.9c0,0,0-0.1,0-0.1l0-0.2c0-0.2,0.1-0.4,0.3-0.4l0.7-0.1c0.1,0,0.2,0,0.2-0.1l0.9-0.6
					C33.4,4.6,33.5,4.4,33.4,4.2z M15,10.4c0,0.1-0.1,0.2-0.2,0.2l-0.5-0.1c-0.1,0-0.2-0.1-0.1-0.2l0.1-0.4c0,0,0-0.1,0-0.1
					l-0.3-0.6c0-0.1,0-0.2,0.1-0.2l0.7-0.4c0.1-0.1,0.2,0,0.2,0.1l0,0.1c0,0.1,0,0.2-0.1,0.2l-0.1,0.1c-0.1,0.1-0.1,0.2-0.1,0.3
					C14.8,9.5,15,9.7,15,9.7C15,9.8,15,10.2,15,10.4z" />
          <linearGradient id="SVGID_12_" gradientUnits="userSpaceOnUse" x1="27.3872" y1="24.1486" x2="27.3872" y2="-1.9062" gradientTransform="matrix(1 0 0 -1 0 26)">
            <stop offset={0} style={{stopColor: '#AEEA00'}} />
            <stop offset="0.2373" style={{stopColor: '#ADE903'}} />
            <stop offset="0.3915" style={{stopColor: '#A9E40B'}} />
            <stop offset="0.522" style={{stopColor: '#A2DC1A'}} />
            <stop offset="0.6386" style={{stopColor: '#98D12F'}} />
            <stop offset="0.7459" style={{stopColor: '#8BC34A'}} />
            <stop offset={1} style={{stopColor: '#8BC34A'}} />
          </linearGradient>
          <path className="st11" d="M28,7.8l-0.1,1.1c0,0.2,0,0.3-0.1,0.4l-0.4,0.9c-0.1,0.2-0.3,0.4-0.5,0.6l-0.6,0.4c0,0,0,0.1,0,0.1l0,0.3
					c0,0.1,0.1,0.1,0.2,0.1l1.1-0.7c0.2-0.1,0.4-0.4,0.4-0.6c0-0.3,0-0.6,0.1-0.7c0-0.1,0.2-0.2,0.3-0.3c0.1-0.1,0.1-0.3,0-0.4l0,0
					c-0.1-0.1-0.2-0.3-0.2-0.4L28.3,8c0-0.2-0.1-0.3-0.3-0.3l0,0C28,7.7,28,7.7,28,7.8z" />
          <linearGradient id="SVGID_13_" gradientUnits="userSpaceOnUse" x1="25.2695" y1="24.1486" x2="25.2695" y2="-1.9062" gradientTransform="matrix(1 0 0 -1 0 26)">
            <stop offset={0} style={{stopColor: '#AEEA00'}} />
            <stop offset="0.2373" style={{stopColor: '#ADE903'}} />
            <stop offset="0.3915" style={{stopColor: '#A9E40B'}} />
            <stop offset="0.522" style={{stopColor: '#A2DC1A'}} />
            <stop offset="0.6386" style={{stopColor: '#98D12F'}} />
            <stop offset="0.7459" style={{stopColor: '#8BC34A'}} />
            <stop offset={1} style={{stopColor: '#8BC34A'}} />
          </linearGradient>
          <path className="st12" d="M25.4,12.4L25.4,12.4c-0.1,0-0.1,0-0.1,0.1l-0.1,0.3c-0.1,0.1-0.1,0.3,0,0.4l0.2,0.3h0.1l0-0.1
					c0-0.1,0-0.2,0.1-0.3l0,0c0.1-0.1,0.1-0.2,0.1-0.3l0-0.2C25.5,12.4,25.4,12.4,25.4,12.4z" />
          <linearGradient id="SVGID_14_" gradientUnits="userSpaceOnUse" x1="24.0604" y1="24.1486" x2="24.0604" y2="-1.9062" gradientTransform="matrix(1 0 0 -1 0 26)">
            <stop offset={0} style={{stopColor: '#AEEA00'}} />
            <stop offset="0.2373" style={{stopColor: '#ADE903'}} />
            <stop offset="0.3915" style={{stopColor: '#A9E40B'}} />
            <stop offset="0.522" style={{stopColor: '#A2DC1A'}} />
            <stop offset="0.6386" style={{stopColor: '#98D12F'}} />
            <stop offset="0.7459" style={{stopColor: '#8BC34A'}} />
            <stop offset={1} style={{stopColor: '#8BC34A'}} />
          </linearGradient>
          <path className="st13" d="M23.3,16.3l0.1,0.3c0,0.1,0.1,0.1,0.2,0.2l0.7,0.2c0.2,0,0.3-0.1,0.4-0.2l0.2-0.8c0,0,0,0,0-0.1v-0.3
					c0-0.1-0.1-0.2-0.2-0.2l0,0c-0.1,0-0.1,0-0.2,0L23.4,16C23.3,16.1,23.2,16.2,23.3,16.3z" />
          <linearGradient id="SVGID_15_" gradientUnits="userSpaceOnUse" x1="27.7761" y1="24.1486" x2="27.7761" y2="-1.9062" gradientTransform="matrix(1 0 0 -1 0 26)">
            <stop offset={0} style={{stopColor: '#AEEA00'}} />
            <stop offset="0.2373" style={{stopColor: '#ADE903'}} />
            <stop offset="0.3915" style={{stopColor: '#A9E40B'}} />
            <stop offset="0.522" style={{stopColor: '#A2DC1A'}} />
            <stop offset="0.6386" style={{stopColor: '#98D12F'}} />
            <stop offset="0.7459" style={{stopColor: '#8BC34A'}} />
            <stop offset={1} style={{stopColor: '#8BC34A'}} />
          </linearGradient>
          <path className="st14" d="M27.6,17.7l0.4,0c0,0,0.1,0,0.1,0l0,0c0.1-0.1,0.4-0.1,0.5,0l0.5,0.4l0-0.2l-0.2-0.5
					c-0.1-0.1-0.2-0.3-0.3-0.3l-1.3-0.6c-0.1,0-0.2-0.1-0.3,0l-0.3,0c-0.2,0-0.3,0.2-0.1,0.4l0.6,0.7C27.3,17.6,27.4,17.7,27.6,17.7
					z" />
          <linearGradient id="SVGID_16_" gradientUnits="userSpaceOnUse" x1="26.6599" y1="24.1486" x2="26.6599" y2="-1.9062" gradientTransform="matrix(1 0 0 -1 0 26)">
            <stop offset={0} style={{stopColor: '#AEEA00'}} />
            <stop offset="0.2373" style={{stopColor: '#ADE903'}} />
            <stop offset="0.3915" style={{stopColor: '#A9E40B'}} />
            <stop offset="0.522" style={{stopColor: '#A2DC1A'}} />
            <stop offset="0.6386" style={{stopColor: '#98D12F'}} />
            <stop offset="0.7459" style={{stopColor: '#8BC34A'}} />
            <stop offset={1} style={{stopColor: '#8BC34A'}} />
          </linearGradient>
          <path className="st15" d="M28,18.1L28,18.1c-0.1,0-0.2,0-0.2,0.1l0,0.3c0,0.2-0.2,0.3-0.3,0.3l-0.4-0.1c-0.1,0-0.1-0.1-0.1-0.1
					l0.1-0.4c0-0.1,0-0.1-0.1-0.1L26.4,18c-0.2,0-0.4,0-0.5,0.2L25,19c-0.1,0.1-0.2,0.2-0.4,0.2L24,19.5c-0.2,0.1-0.3,0.3-0.3,0.5
					l0.2,1.3c0,0.1,0,0.1,0,0.2l0,0c-0.1,0.1,0,0.2,0,0.3l0.2,0.2C24.4,22,24.7,22,25,22l1-0.3c0.2-0.1,0.4,0,0.6,0.1l0.3,0.2
					C26.9,22,27,22,27,22l0,0c0.1-0.1,0.2-0.1,0.3,0l0.1,0.1c0.1,0.2,0.3,0.4,0.5,0.4l0.3,0.1c0.2,0.1,0.4,0,0.6-0.1l0.2-0.1
					c0.1-0.1,0.2-0.2,0.2-0.4l0.3-1.6c0-0.2,0-0.4-0.2-0.5l-0.6-0.6c-0.3-0.3-0.5-0.7-0.7-1L28,18.1C28.1,18.2,28,18.1,28,18.1z" />
          <radialGradient id="SVGID_17_" cx="10.3873" cy="23.3066" r="18.7287" gradientTransform="matrix(1 0 0 -1 0 26)" gradientUnits="userSpaceOnUse">
            <stop offset={0} style={{stopColor: '#AEEA00'}} />
            <stop offset="0.2373" style={{stopColor: '#ADE903'}} />
            <stop offset="0.3915" style={{stopColor: '#A9E40B'}} />
            <stop offset="0.522" style={{stopColor: '#A2DC1A'}} />
            <stop offset="0.6386" style={{stopColor: '#98D12F'}} />
            <stop offset="0.7459" style={{stopColor: '#8BC34A'}} />
            <stop offset={1} style={{stopColor: '#8BC34A'}} />
          </radialGradient>
          <path className="st16" d="M13.5,19.2l-0.1,0.4c0,0.3,0.2,0.6,0.5,0.6l0,0c0.1,0,0.3-0.1,0.3-0.2l0.3-0.9c0-0.1,0-0.2,0-0.3l-0.2-0.4
					c0-0.1-0.2-0.2-0.3-0.1l-0.3,0.3C13.6,18.8,13.5,19,13.5,19.2z" />
          <linearGradient id="SVGID_18_" gradientUnits="userSpaceOnUse" x1="-3.4628" y1="24.1486" x2="-3.4628" y2="-1.9062" gradientTransform="matrix(1 0 0 -1 0 26)">
            <stop offset={0} style={{stopColor: '#AEEA00'}} />
            <stop offset="0.2373" style={{stopColor: '#ADE903'}} />
            <stop offset="0.3915" style={{stopColor: '#A9E40B'}} />
            <stop offset="0.522" style={{stopColor: '#A2DC1A'}} />
            <stop offset="0.6386" style={{stopColor: '#98D12F'}} />
            <stop offset="0.7459" style={{stopColor: '#8BC34A'}} />
            <stop offset={1} style={{stopColor: '#8BC34A'}} />
          </linearGradient>
          <path className="st17" d="M-4,14.3c-0.3,0.1-0.7,0.2-1,0.2c-0.1,0-0.1,0.1,0,0.2l0.1,0.1c0.2,0.2,0.4,0.2,0.6,0.2l0.3,0
					c0.1,0,0.3,0,0.4,0l1.5,0.2c0.1,0,0.2,0,0.2-0.1l0.1-0.1c0.1-0.1,0-0.2-0.1-0.2c-0.3-0.1-1-0.3-1.4-0.4
					C-3.6,14.2-3.8,14.2-4,14.3z" />
          <linearGradient id="SVGID_19_" gradientUnits="userSpaceOnUse" x1="-0.8189" y1="24.1486" x2="-0.8189" y2="-1.9062" gradientTransform="matrix(1 0 0 -1 0 26)">
            <stop offset={0} style={{stopColor: '#AEEA00'}} />
            <stop offset="0.2373" style={{stopColor: '#ADE903'}} />
            <stop offset="0.3915" style={{stopColor: '#A9E40B'}} />
            <stop offset="0.522" style={{stopColor: '#A2DC1A'}} />
            <stop offset="0.6386" style={{stopColor: '#98D12F'}} />
            <stop offset="0.7459" style={{stopColor: '#8BC34A'}} />
            <stop offset={1} style={{stopColor: '#8BC34A'}} />
          </linearGradient>
          <path className="st18" d="M-1.4,15l-0.2,0.2c0,0,0,0.1,0,0.1l1.2,0.3c0.1,0,0.2,0,0.2,0c0.2-0.1-0.7-0.6-1-0.7
					C-1.2,14.9-1.3,14.9-1.4,15z" />
        </g>
      </g>
    </g>
    <g className="st19">
      <path className="st3" d="M10.8,1.7c5.7,0,10.3,4.6,10.3,10.3s-4.6,10.3-10.3,10.3S0.5,17.7,0.5,12S5.1,1.7,10.8,1.7 M10.8,1.2
			C4.8,1.2,0,6,0,12s4.8,10.8,10.8,10.8S21.6,18,21.6,12S16.8,1.2,10.8,1.2L10.8,1.2z" />
    </g>
  </g>
</svg>
